<?xml version="1.0" encoding="UTF-8" standalone="no"?><!DOCTYPE svg PUBLIC "-//W3C//DTD SVG 1.1//EN" "http://www.w3.org/Graphics/SVG/1.1/DTD/svg11.dtd"><svg width="100%" height="100%" viewBox="0 0 290 151" version="1.1" xmlns="http://www.w3.org/2000/svg" xmlns:xlink="http://www.w3.org/1999/xlink" xml:space="preserve" xmlns:serif="http://www.serif.com/" style="fill-rule:evenodd;clip-rule:evenodd;stroke-linejoin:round;stroke-miterlimit:2;"><g><rect x="-0" y="0" width="289.82" height="150.988" style="fill:url(#_Linear1);"/><g><path d="M143.75,58.802c4.88,3.315 7.452,8.407 6.882,13.605c-0.61,5.556 -4.721,10.184 -11.271,12.703c-4.495,1.724 -9.521,2.612 -14.944,2.652l-0.371,0c-0.796,0 -1.472,-0.65 -1.525,-1.472c-0.04,-0.835 0.544,-1.565 1.353,-1.671c0.742,-0.08 1.459,-0.199 2.135,-0.332c5.821,-1.18 9.561,-4.204 11.072,-8.991c0.663,-2.069 0.822,-4.363 0.491,-7.028c-0.796,-6.484 -6.431,-11.364 -14.029,-12.16c-1.565,-0.159 -3.275,-0.252 -5.384,-0.292c-0.835,-0.013 -1.498,-0.716 -1.498,-1.565c-0.013,-0.849 0.636,-1.565 1.472,-1.591c1.034,-0.04 1.949,-0.093 2.824,-0.159c6.126,-0.491 10.94,-3.872 12.557,-8.818c1.008,-3.063 1.048,-6.193 0.146,-9.282c-1.299,-4.416 -4.548,-7.094 -9.919,-8.208c-0.557,-0.106 -1.14,-0.212 -1.737,-0.278c-0.809,-0.106 -1.392,-0.849 -1.339,-1.697c0.066,-0.835 0.756,-1.472 1.578,-1.445c5.384,0.159 10.038,0.995 14.215,2.546c7.253,2.679 11.152,7.718 10.728,13.817c-0.371,5.264 -3.62,9.388 -9.654,12.239c-1.512,0.716 -3.09,1.233 -4.76,1.777c-0.597,0.199 -1.207,0.398 -1.817,0.61c0.583,0.133 1.114,0.239 1.644,0.358c4.376,1.034 8.022,2.559 11.152,4.681Zm-33.482,-33.35l0,59.632c0.424,0.411 0.597,1.048 0.411,1.631c-0.199,0.65 -0.796,1.101 -1.459,1.101l-0.464,0c-2.692,0 -5.397,0 -8.089,-0.013l-2.692,0c-0.729,0 -1.339,-0.517 -1.498,-1.233c-0.159,-0.729 0.199,-1.459 0.849,-1.777c0.57,-0.265 1.074,-0.637 1.087,-2.214l0,-54.235c0,-1.803 -0.53,-2.347 -1.101,-2.652c-0.623,-0.345 -0.942,-1.074 -0.782,-1.777c0.172,-0.703 0.782,-1.207 1.485,-1.207l11.218,0c0.676,0 1.26,0.451 1.459,1.114c0.186,0.583 0,1.22 -0.424,1.631Zm-61.759,59.4c0.676,0.278 1.048,1.021 0.915,1.764c-0.146,0.729 -0.769,1.26 -1.498,1.26l-12.796,0c-0.716,0 -1.326,-0.504 -1.485,-1.207c-0.172,-0.716 0.159,-1.445 0.796,-1.777c0.491,-0.252 0.995,-0.663 1.048,-1.83l0,-54.885c0,-1.976 -0.69,-2.347 -1.061,-2.546c-0.623,-0.345 -0.941,-1.074 -0.769,-1.777c0.172,-0.703 0.782,-1.207 1.485,-1.207l11.019,0c0.623,0 1.193,0.398 1.419,0.995c0.212,0.557 0.106,1.167 -0.252,1.618c0,0 -0.066,48.917 -0.053,57.232c0,1.525 0.451,2.016 1.233,2.36Zm35.166,-62.204c0.849,0 1.525,0.716 1.525,1.578l0,13.274c0,0.782 -0.544,1.445 -1.299,1.551c-0.08,0.013 -0.146,0.027 -0.225,0.027c-0.663,0 -1.26,-0.451 -1.459,-1.127c-0.199,-0.676 -0.371,-1.193 -0.53,-1.671c-2.387,-6.643 -7.306,-9.959 -15.488,-10.449l-0.491,-0.027c-0.822,-0.04 -1.459,-0.756 -1.445,-1.618c0.027,-0.849 0.703,-1.538 1.525,-1.538l17.888,0Zm-9.706,21.508c0.729,0.146 1.246,0.796 1.246,1.551l0,19.705c0,0.756 -0.53,1.406 -1.246,1.551c-0.093,0.013 -0.186,0.027 -0.279,0.027c-0.623,0 -1.193,-0.398 -1.432,-1.021c-0.623,-1.697 -1.26,-3.355 -2.029,-4.946c-1.167,-2.453 -3.355,-3.779 -6.312,-3.845c-1.432,-0.027 -2.93,-0.053 -4.615,-0.053c-0.835,-0.013 -1.512,-0.716 -1.512,-1.578c0,-0.875 0.676,-1.578 1.512,-1.578l3.156,-0.04c3.912,-0.04 6.59,-1.538 7.983,-4.442c0.742,-1.551 1.366,-3.143 1.83,-4.349c0.265,-0.703 0.981,-1.114 1.697,-0.981Zm123.107,5.764c0.195,0.451 0.203,0.962 0.022,1.419c-4.663,11.835 -9.325,23.675 -13.98,35.515c-0.225,0.583 -0.782,0.968 -1.392,0.981l-0.026,0c-0.597,0 -1.141,-0.371 -1.392,-0.941c-1.154,-2.679 -2.307,-5.41 -3.421,-8.049l-5.424,-12.77c-5.33,-12.558 -10.834,-25.539 -16.27,-38.442c-0.385,-0.928 -0.915,-1.551 -1.671,-1.976c-0.624,-0.345 -0.928,-1.087 -0.756,-1.777c0.172,-0.703 0.782,-1.193 1.485,-1.193l14.534,0c0.689,0 1.299,0.491 1.472,1.167c0.186,0.69 -0.106,1.419 -0.703,1.777c-0.212,0.133 -0.345,0.265 -0.424,0.411c-0.066,0.106 -0.212,0.398 0.053,1.18c1.353,3.899 2.533,7.147 3.713,10.197c3.222,8.381 6.537,16.907 9.733,25.142l2.904,7.479c0.04,0.093 0.08,0.199 0.133,0.305l0.53,-1.339c0.583,-1.485 1.127,-2.851 1.658,-4.217l3.673,-9.455c0.695,-1.799 1.39,-3.598 2.086,-5.396c0.273,-0.705 0.945,-1.174 1.7,-1.189c0.756,-0.014 1.445,0.43 1.744,1.124l0.02,0.046Zm9.805,-4.053c0,0 -7.466,-17.437 -7.93,-18.684c-0.252,-0.676 -0.663,-1.18 -1.247,-1.538c-0.597,-0.358 -0.888,-1.087 -0.703,-1.764c0.173,-0.69 0.782,-1.167 1.472,-1.167l14.268,0c0.69,0 1.286,0.464 1.472,1.154c0.186,0.676 -0.093,1.406 -0.676,1.764c-0.265,0.172 -0.371,0.318 -0.424,0.424c-0.053,0.106 -0.199,0.371 0.027,1.008c0.968,2.824 2.267,6.551 3.713,10.317c3.196,8.327 6.444,16.681 9.574,24.77l3.129,8.049c0.027,0.08 0.066,0.159 0.106,0.252l0.955,-2.427c0.915,-2.281 1.79,-4.509 2.665,-6.736l0.932,-2.388c0.279,-0.716 0.963,-1.192 1.731,-1.205c0.768,-0.013 1.468,0.438 1.772,1.144l0.004,0.009c0.2,0.463 0.206,0.986 0.019,1.454c-1.204,3.005 -2.4,5.994 -3.584,8.955c-2.347,5.861 -4.694,11.722 -7.054,17.583c-0.226,0.583 -0.782,0.968 -1.392,0.981c-0.623,0 -1.167,-0.371 -1.419,-0.941c-5.808,-13.671 -11.616,-27.343 -17.411,-41.014Zm34.665,-3.93c-0.241,-0.559 -0.252,-1.19 -0.031,-1.757l3.29,-8.448c0.027,-0.066 0.053,-0.119 0.066,-0.172c0.345,-0.955 0.729,-2.347 0.199,-3.421c-0.292,-0.597 -0.995,-1.485 -3.699,-2.281l-0.133,-0.04c-0.743,-0.212 -1.207,-0.955 -1.114,-1.737c0.106,-0.782 0.756,-1.353 1.525,-1.353l13.048,0c0.729,0 1.366,0.544 1.499,1.286c0.132,0.756 -0.278,1.498 -0.968,1.764c-2.042,0.782 -3.607,2.069 -4.654,3.819c-1.366,2.254 -2.387,4.681 -3.302,6.988l-2.452,6.088c-0.24,0.597 -0.815,0.99 -1.458,0.998c-0.643,0.008 -1.228,-0.372 -1.482,-0.962l-0.333,-0.772Z"/><rect x="33.599" y="102.333" width="222.622" height="3.093"/><g transform="matrix(0.462639,0,0,0.462639,-165.813696,-2.352815)"><g transform="matrix(26.685393,0,0,26.685393,429,282)"><path d="M0.586,-0.592l-0.361,0l0,0.166l0.316,0l0,0.125l-0.316,0l0,0.302l-0.149,-0l0,-0.719l0.51,0l0,0.126Z" style="fill-rule:nonzero;"/></g><g transform="matrix(26.685393,0,0,26.685393,447.969041,282)"><path d="M0.382,-0.282l-0.155,0l0,0.282l-0.147,-0l0,-0.72l0.353,0c0.05,0.001 0.089,0.007 0.116,0.019c0.027,0.011 0.05,0.028 0.069,0.05c0.016,0.018 0.028,0.038 0.037,0.061c0.009,0.022 0.014,0.047 0.014,0.076c0,0.034 -0.009,0.068 -0.026,0.101c-0.017,0.033 -0.046,0.056 -0.085,0.07c0.033,0.013 0.057,0.032 0.071,0.057c0.014,0.025 0.021,0.062 0.021,0.113l0,0.048c0,0.033 0.001,0.055 0.004,0.067c0.004,0.019 0.013,0.032 0.027,0.041l0,0.018l-0.166,-0c-0.005,-0.016 -0.008,-0.029 -0.01,-0.039c-0.004,-0.02 -0.006,-0.041 -0.006,-0.062l-0.001,-0.067c-0.001,-0.046 -0.009,-0.076 -0.025,-0.092c-0.016,-0.015 -0.046,-0.023 -0.091,-0.023Zm0.091,-0.131c0.03,-0.014 0.045,-0.041 0.045,-0.081c0,-0.044 -0.014,-0.073 -0.043,-0.088c-0.016,-0.008 -0.041,-0.013 -0.073,-0.013l-0.175,0l0,0.193l0.17,0c0.034,0 0.059,-0.004 0.076,-0.012Z" style="fill-rule:nonzero;"/></g><g transform="matrix(26.685393,0,0,26.685393,469.908916,282)"><path d="M0.577,-0.314l-0.35,0l0,0.185l0.398,0l0,0.129l-0.545,-0l0,-0.72l0.528,0l0,0.127l-0.381,0l0,0.153l0.35,0l0,0.125Z" style="fill-rule:nonzero;"/></g><g transform="matrix(26.685393,0,0,26.685393,490.376404,282)"><path d="M0.577,-0.314l-0.35,0l0,0.185l0.398,0l0,0.129l-0.545,-0l0,-0.72l0.528,0l0,0.127l-0.381,0l0,0.153l0.35,0l0,0.125Z" style="fill-rule:nonzero;"/></g><g transform="matrix(26.685393,0,0,26.685393,510.843893,282)"><path d="M0.386,-0l-0.31,-0l0,-0.72l0.31,0c0.045,0.001 0.082,0.006 0.111,0.016c0.05,0.017 0.091,0.047 0.123,0.091c0.025,0.036 0.042,0.075 0.051,0.116c0.009,0.042 0.014,0.081 0.014,0.119c0,0.096 -0.019,0.177 -0.058,0.243c-0.052,0.09 -0.132,0.134 -0.241,0.134Zm0.112,-0.536c-0.023,-0.039 -0.069,-0.059 -0.137,-0.059l-0.139,0l0,0.47l0.139,0c0.071,0 0.12,-0.035 0.148,-0.105c0.015,-0.038 0.023,-0.084 0.023,-0.137c0,-0.073 -0.011,-0.13 -0.034,-0.169Z" style="fill-rule:nonzero;"/></g><g transform="matrix(26.685393,0,0,26.685393,532.783768,282)"><path d="M0.214,-0l-0.14,-0l0,-0.72l0.219,0l0.131,0.566l0.13,-0.566l0.216,0l0,0.72l-0.14,-0l0,-0.487c0,-0.014 0,-0.034 0,-0.059c0,-0.025 0,-0.045 0,-0.058l-0.136,0.604l-0.146,-0l-0.135,-0.604c0,0.014 0,0.033 0,0.058c0,0.025 0,0.045 0,0.059l0,0.487Z" style="fill-rule:nonzero;"/></g><g transform="matrix(26.685393,0,0,26.685393,557.681449,282)"><path d="M0.498,-0.148l-0.265,0l-0.05,0.148l-0.157,-0l0.257,-0.72l0.17,0l0.255,0.72l-0.163,-0l-0.046,-0.148Zm-0.042,-0.124l-0.09,-0.283l-0.093,0.283l0.183,0Z" style="fill-rule:nonzero;"/></g><g transform="matrix(26.685393,0,0,26.685393,579.621324,282)"><path d="M0.658,-0l-0.15,-0l-0.294,-0.511l0,0.511l-0.14,-0l0,-0.72l0.158,0l0.287,0.502l0,-0.502l0.14,0l0,0.72Z" style="fill-rule:nonzero;"/></g><g transform="matrix(26.685393,0,0,26.685393,611.167941,282)"><path d="M0.071,-0.358c0,-0.031 0.01,-0.057 0.031,-0.077c0.02,-0.02 0.046,-0.03 0.077,-0.03c0.031,0 0.057,0.01 0.077,0.03c0.02,0.02 0.031,0.046 0.031,0.077c0,0.031 -0.01,0.057 -0.031,0.078c-0.02,0.021 -0.046,0.031 -0.077,0.031c-0.031,0 -0.057,-0.01 -0.077,-0.031c-0.02,-0.021 -0.031,-0.046 -0.031,-0.078Z" style="fill-rule:nonzero;"/></g><g transform="matrix(26.685393,0,0,26.685393,632.785716,282)"><path d="M0.405,-0l-0.326,-0l0,-0.72l0.35,0c0.088,0.001 0.151,0.027 0.188,0.077c0.022,0.031 0.033,0.067 0.033,0.11c0,0.044 -0.011,0.079 -0.033,0.106c-0.012,0.015 -0.031,0.029 -0.055,0.041c0.037,0.013 0.065,0.035 0.083,0.063c0.019,0.029 0.028,0.064 0.028,0.105c0,0.043 -0.011,0.081 -0.032,0.115c-0.014,0.022 -0.031,0.041 -0.051,0.057c-0.023,0.018 -0.05,0.03 -0.082,0.036c-0.031,0.007 -0.066,0.01 -0.102,0.01Zm-0.003,-0.317l-0.179,0l0,0.192l0.177,0c0.032,0 0.056,-0.004 0.074,-0.013c0.032,-0.016 0.048,-0.046 0.048,-0.09c0,-0.037 -0.015,-0.063 -0.046,-0.077c-0.017,-0.008 -0.042,-0.012 -0.073,-0.012Zm0.075,-0.137c0.02,-0.012 0.029,-0.033 0.029,-0.063c0,-0.034 -0.013,-0.056 -0.039,-0.066c-0.022,-0.007 -0.051,-0.011 -0.086,-0.011l-0.158,0l0,0.159l0.177,0c0.032,0 0.057,-0.006 0.077,-0.018Z" style="fill-rule:nonzero;"/></g><g transform="matrix(26.685393,0,0,26.685393,654.725591,282)"><path d="M0.577,-0.314l-0.35,0l0,0.185l0.398,0l0,0.129l-0.545,-0l0,-0.72l0.528,0l0,0.127l-0.381,0l0,0.153l0.35,0l0,0.125Z" style="fill-rule:nonzero;"/></g><g transform="matrix(26.685393,0,0,26.685393,675.19308,282)"><path d="M0.658,-0l-0.15,-0l-0.294,-0.511l0,0.511l-0.14,-0l0,-0.72l0.158,0l0.287,0.502l0,-0.502l0.14,0l0,0.72Z" style="fill-rule:nonzero;"/></g><g transform="matrix(26.685393,0,0,26.685393,697.132955,282)"><rect x="0.064" y="-0.72" width="0.149" height="0.72" style="fill-rule:nonzero;"/></g><g transform="matrix(26.685393,0,0,26.685393,707.215551,282)"><path d="M0.382,-0.259l-0.153,0l0,0.259l-0.149,-0l0,-0.72l0.313,0c0.072,0 0.13,0.019 0.173,0.056c0.043,0.037 0.064,0.095 0.064,0.172c0,0.085 -0.021,0.145 -0.064,0.18c-0.043,0.035 -0.104,0.053 -0.184,0.053Zm0.07,-0.15c0.02,-0.017 0.029,-0.045 0.029,-0.082c0,-0.037 -0.01,-0.064 -0.03,-0.08c-0.02,-0.016 -0.047,-0.024 -0.083,-0.024l-0.14,0l0,0.212l0.14,0c0.035,0 0.063,-0.009 0.083,-0.026Z" style="fill-rule:nonzero;"/></g><g transform="matrix(26.685393,0,0,26.685393,725.715513,282)"><path d="M0.498,-0.148l-0.265,0l-0.05,0.148l-0.157,-0l0.257,-0.72l0.17,0l0.255,0.72l-0.163,-0l-0.046,-0.148Zm-0.042,-0.124l-0.09,-0.283l-0.093,0.283l0.183,0Z" style="fill-rule:nonzero;"/></g><g transform="matrix(26.685393,0,0,26.685393,747.655389,282)"><path d="M0.076,-0.72l0.15,0l0,0.59l0.356,0l0,0.129l-0.507,-0l0,-0.72Z" style="fill-rule:nonzero;"/></g><g transform="matrix(26.685393,0,0,26.685393,776.231171,282)"><path d="M0.071,-0.358c0,-0.031 0.01,-0.057 0.031,-0.077c0.02,-0.02 0.046,-0.03 0.077,-0.03c0.031,0 0.057,0.01 0.077,0.03c0.02,0.02 0.031,0.046 0.031,0.077c0,0.031 -0.01,0.057 -0.031,0.078c-0.02,0.021 -0.046,0.031 -0.077,0.031c-0.031,0 -0.057,-0.01 -0.077,-0.031c-0.02,-0.021 -0.031,-0.046 -0.031,-0.078Z" style="fill-rule:nonzero;"/></g><g transform="matrix(26.685393,0,0,26.685393,797.848946,282)"><path d="M0.776,-0.72l0.153,0l-0.203,0.72l-0.144,-0l-0.087,-0.421l-0.025,-0.139l-0.025,0.139l-0.087,0.421l-0.14,-0l-0.204,-0.72l0.16,0l0.095,0.412l0.021,0.115l0.021,-0.112l0.081,-0.415l0.159,0l0.085,0.412l0.022,0.115l0.022,-0.11l0.096,-0.417Z" style="fill-rule:nonzero;"/></g><g transform="matrix(26.685393,0,0,26.685393,825.704431,282)"><path d="M0.502,-0.277l0,-0.442l0.153,0l0,0.442c0,0.076 -0.012,0.136 -0.036,0.179c-0.044,0.078 -0.129,0.117 -0.253,0.117c-0.125,0 -0.209,-0.039 -0.254,-0.117c-0.024,-0.043 -0.036,-0.102 -0.036,-0.179l0,-0.442l0.153,0l0,0.442c0,0.049 0.006,0.086 0.018,0.108c0.018,0.04 0.058,0.061 0.119,0.061c0.061,0 0.1,-0.02 0.119,-0.061c0.012,-0.023 0.018,-0.059 0.018,-0.108Z" style="fill-rule:nonzero;"/></g><g transform="matrix(26.685393,0,0,26.685393,857.251048,282)"><path d="M0.076,-0.72l0.15,0l0,0.59l0.356,0l0,0.129l-0.507,-0l0,-0.72Z" style="fill-rule:nonzero;"/></g><g transform="matrix(26.685393,0,0,26.685393,876.220089,282)"><path d="M0.076,-0.72l0.15,0l0,0.59l0.356,0l0,0.129l-0.507,-0l0,-0.72Z" style="fill-rule:nonzero;"/></g><g transform="matrix(26.685393,0,0,26.685393,895.189129,282)"><path d="M0.382,-0.259l-0.153,0l0,0.259l-0.149,-0l0,-0.72l0.313,0c0.072,0 0.13,0.019 0.173,0.056c0.043,0.037 0.064,0.095 0.064,0.172c0,0.085 -0.021,0.145 -0.064,0.18c-0.043,0.035 -0.104,0.053 -0.184,0.053Zm0.07,-0.15c0.02,-0.017 0.029,-0.045 0.029,-0.082c0,-0.037 -0.01,-0.064 -0.03,-0.08c-0.02,-0.016 -0.047,-0.024 -0.083,-0.024l-0.14,0l0,0.212l0.14,0c0.035,0 0.063,-0.009 0.083,-0.026Z" style="fill-rule:nonzero;"/></g></g></g></g><defs><linearGradient id="_Linear1" x1="0" y1="0" x2="1" y2="0" gradientUnits="userSpaceOnUse" gradientTransform="matrix(289.820199,0,0,150.988463,-0,75.494231)"><stop offset="0" style="stop-color:#b08854;stop-opacity:1"/><stop offset="0.49" style="stop-color:#ffc989;stop-opacity:1"/><stop offset="1" style="stop-color:#9c7146;stop-opacity:1"/></linearGradient></defs></svg>