<?xml version="1.0" encoding="UTF-8" standalone="no"?><!DOCTYPE svg PUBLIC "-//W3C//DTD SVG 1.1//EN" "http://www.w3.org/Graphics/SVG/1.1/DTD/svg11.dtd"><svg width="100%" height="100%" viewBox="0 0 299 142" version="1.1" xmlns="http://www.w3.org/2000/svg" xmlns:xlink="http://www.w3.org/1999/xlink" xml:space="preserve" xmlns:serif="http://www.serif.com/" style="fill-rule:evenodd;clip-rule:evenodd;stroke-linejoin:round;stroke-miterlimit:2;"><g><path d="M147.568,48.435c6.537,4.441 9.984,11.263 9.22,18.227c-0.817,7.443 -6.324,13.643 -15.1,17.019c-6.022,2.309 -12.755,3.5 -20.021,3.553l-0.497,0c-1.066,0 -1.972,-0.87 -2.043,-1.972c-0.053,-1.119 0.728,-2.096 1.812,-2.238c0.995,-0.107 1.954,-0.266 2.86,-0.444c7.799,-1.581 12.808,-5.631 14.833,-12.044c0.888,-2.771 1.101,-5.845 0.657,-9.415c-1.066,-8.687 -8.616,-15.224 -18.795,-16.29c-2.096,-0.213 -4.388,-0.338 -7.213,-0.391c-1.119,-0.018 -2.007,-0.959 -2.007,-2.096c-0.018,-1.137 0.853,-2.096 1.972,-2.132c1.386,-0.053 2.611,-0.124 3.784,-0.213c8.207,-0.657 14.656,-5.187 16.823,-11.814c1.35,-4.104 1.403,-8.296 0.195,-12.435c-1.741,-5.916 -6.093,-9.504 -13.288,-10.996c-0.746,-0.142 -1.528,-0.284 -2.327,-0.373c-1.084,-0.142 -1.865,-1.137 -1.794,-2.274c0.089,-1.119 1.012,-1.972 2.114,-1.936c7.213,0.213 13.448,1.332 19.044,3.411c9.717,3.589 14.94,10.339 14.372,18.511c-0.497,7.053 -4.85,12.577 -12.933,16.397c-2.025,0.959 -4.139,1.652 -6.377,2.38c-0.8,0.267 -1.617,0.533 -2.434,0.817c0.782,0.178 1.492,0.32 2.203,0.48c5.862,1.386 10.748,3.429 14.94,6.271Zm-44.856,-44.678l0,79.888c0.568,0.551 0.799,1.403 0.551,2.185c-0.267,0.87 -1.066,1.474 -1.954,1.474l-0.622,0c-3.606,0 -7.23,0 -10.836,-0.018l-3.606,0c-0.977,0 -1.794,-0.693 -2.007,-1.652c-0.213,-0.977 0.267,-1.954 1.137,-2.38c0.764,-0.355 1.439,-0.853 1.457,-2.967l0,-72.658c0,-2.416 -0.711,-3.144 -1.474,-3.553c-0.835,-0.462 -1.261,-1.439 -1.048,-2.38c0.231,-0.942 1.048,-1.617 1.99,-1.617l15.029,0c0.906,0 1.688,0.604 1.954,1.492c0.249,0.782 0,1.634 -0.568,2.185Z"/><path d="M19.975,83.334c0.906,0.373 1.403,1.368 1.226,2.363c-0.195,0.977 -1.03,1.688 -2.007,1.688l-17.143,0c-0.959,0 -1.776,-0.675 -1.99,-1.617c-0.231,-0.959 0.213,-1.936 1.066,-2.38c0.657,-0.338 1.332,-0.888 1.403,-2.452l0,-73.528c0,-2.647 -0.924,-3.144 -1.421,-3.411c-0.835,-0.462 -1.261,-1.439 -1.03,-2.38c0.231,-0.942 1.048,-1.617 1.99,-1.617l14.762,0c0.835,0 1.599,0.533 1.901,1.332c0.284,0.746 0.142,1.563 -0.338,2.167c0,0 -0.089,65.534 -0.071,76.673c0,2.043 0.604,2.7 1.652,3.162Zm47.112,-83.334c1.137,0 2.043,0.959 2.043,2.114l0,17.782c0,1.048 -0.728,1.936 -1.741,2.078c-0.107,0.018 -0.195,0.036 -0.302,0.036c-0.888,0 -1.688,-0.604 -1.954,-1.51c-0.267,-0.906 -0.497,-1.599 -0.711,-2.238c-3.198,-8.9 -9.788,-13.341 -20.749,-13.999l-0.658,-0.036c-1.101,-0.053 -1.954,-1.013 -1.936,-2.167c0.036,-1.137 0.942,-2.061 2.043,-2.061l23.965,0Zm-13.004,28.814c0.977,0.195 1.67,1.066 1.67,2.078l0,26.398c0,1.013 -0.711,1.883 -1.67,2.078c-0.124,0.018 -0.249,0.036 -0.373,0.036c-0.835,0 -1.599,-0.533 -1.919,-1.368c-0.835,-2.274 -1.688,-4.494 -2.718,-6.626c-1.563,-3.286 -4.495,-5.063 -8.456,-5.152c-1.919,-0.036 -3.926,-0.071 -6.182,-0.071c-1.119,-0.018 -2.025,-0.959 -2.025,-2.114c0,-1.172 0.906,-2.114 2.025,-2.114l4.228,-0.053c5.241,-0.053 8.829,-2.061 10.694,-5.951c0.995,-2.078 1.83,-4.21 2.452,-5.827c0.355,-0.942 1.315,-1.492 2.274,-1.315Z"/><path d="M219.009,36.536c0.261,0.605 0.272,1.288 0.03,1.901c-6.248,15.856 -12.493,31.717 -18.729,47.579c-0.302,0.782 -1.048,1.297 -1.865,1.315l-0.035,0c-0.8,0 -1.528,-0.497 -1.865,-1.261c-1.546,-3.589 -3.091,-7.248 -4.583,-10.783l-7.266,-17.107c-7.141,-16.823 -14.514,-34.215 -21.797,-51.5c-0.515,-1.244 -1.226,-2.078 -2.238,-2.647c-0.835,-0.462 -1.244,-1.457 -1.013,-2.381c0.231,-0.942 1.048,-1.599 1.989,-1.599l19.47,0c0.923,0 1.741,0.657 1.972,1.563c0.249,0.924 -0.142,1.901 -0.942,2.38c-0.284,0.178 -0.462,0.355 -0.569,0.551c-0.088,0.142 -0.284,0.533 0.071,1.581c1.812,5.223 3.393,9.575 4.974,13.661c4.317,11.227 8.758,22.65 13.039,33.682l3.89,10.019c0.053,0.124 0.107,0.266 0.178,0.409l0.71,-1.794c0.782,-1.99 1.51,-3.819 2.221,-5.649l4.921,-12.666c0.931,-2.41 1.862,-4.82 2.795,-7.229c0.366,-0.944 1.266,-1.573 2.278,-1.592c1.012,-0.019 1.935,0.576 2.336,1.506c0.009,0.021 0.018,0.041 0.027,0.062Zm13.136,-5.43c0,0 -10.002,-23.361 -10.623,-25.03c-0.338,-0.906 -0.888,-1.581 -1.67,-2.061c-0.799,-0.48 -1.19,-1.457 -0.942,-2.363c0.231,-0.924 1.048,-1.563 1.972,-1.563l19.115,0c0.924,0 1.723,0.622 1.972,1.546c0.249,0.906 -0.124,1.883 -0.906,2.363c-0.356,0.231 -0.497,0.426 -0.569,0.568c-0.071,0.142 -0.267,0.497 0.036,1.35c1.297,3.784 3.038,8.776 4.974,13.821c4.281,11.156 8.633,22.348 12.826,33.184l4.192,10.783c0.036,0.107 0.089,0.213 0.142,0.338l1.279,-3.251c1.226,-3.056 2.398,-6.04 3.571,-9.024c0.417,-1.066 0.833,-2.133 1.249,-3.199c0.374,-0.959 1.29,-1.596 2.319,-1.614c1.029,-0.018 1.967,0.587 2.374,1.532c0.002,0.004 0.004,0.008 0.005,0.012c0.267,0.62 0.276,1.321 0.025,1.948c-1.613,4.026 -3.215,8.03 -4.801,11.997c-3.144,7.852 -6.289,15.704 -9.451,23.556c-0.302,0.782 -1.048,1.297 -1.865,1.315c-0.835,0 -1.564,-0.497 -1.901,-1.261c-7.781,-18.315 -15.562,-36.631 -23.325,-54.946Zm46.441,-5.266c-0.323,-0.749 -0.338,-1.595 -0.041,-2.354c1.216,-3.122 4.407,-11.317 4.407,-11.317c0.036,-0.089 0.071,-0.16 0.089,-0.231c0.462,-1.279 0.977,-3.144 0.266,-4.583c-0.391,-0.799 -1.332,-1.99 -4.956,-3.056l-0.178,-0.053c-0.995,-0.284 -1.616,-1.279 -1.492,-2.327c0.142,-1.048 1.013,-1.812 2.043,-1.812l17.48,0c0.977,0 1.83,0.728 2.008,1.723c0.177,1.013 -0.373,2.007 -1.297,2.363c-2.736,1.048 -4.832,2.771 -6.235,5.116c-1.83,3.02 -3.198,6.271 -4.423,9.362c-1.093,2.712 -2.189,5.432 -3.285,8.156c-0.322,0.799 -1.092,1.327 -1.954,1.337c-0.861,0.011 -1.645,-0.498 -1.986,-1.289c-0.161,-0.375 -0.313,-0.726 -0.446,-1.034Z"/><rect x="0" y="106.753" width="298.245" height="4.144" style="fill:url(#_Linear1);"/><g transform="matrix(0.619792,0,0,0.619792,-267.15062,-33.493274)"><g transform="matrix(26.685393,0,0,26.685393,429,282)"><path d="M0.586,-0.592l-0.361,0l0,0.166l0.316,0l0,0.125l-0.316,0l0,0.302l-0.149,-0l0,-0.719l0.51,0l0,0.126Z" style="fill-rule:nonzero;"/></g><g transform="matrix(26.685393,0,0,26.685393,447.969041,282)"><path d="M0.382,-0.282l-0.155,0l0,0.282l-0.147,-0l0,-0.72l0.353,0c0.05,0.001 0.089,0.007 0.116,0.019c0.027,0.011 0.05,0.028 0.069,0.05c0.016,0.018 0.028,0.038 0.037,0.061c0.009,0.022 0.014,0.047 0.014,0.076c0,0.034 -0.009,0.068 -0.026,0.101c-0.017,0.033 -0.046,0.056 -0.085,0.07c0.033,0.013 0.057,0.032 0.071,0.057c0.014,0.025 0.021,0.062 0.021,0.113l0,0.048c0,0.033 0.001,0.055 0.004,0.067c0.004,0.019 0.013,0.032 0.027,0.041l0,0.018l-0.166,-0c-0.005,-0.016 -0.008,-0.029 -0.01,-0.039c-0.004,-0.02 -0.006,-0.041 -0.006,-0.062l-0.001,-0.067c-0.001,-0.046 -0.009,-0.076 -0.025,-0.092c-0.016,-0.015 -0.046,-0.023 -0.091,-0.023Zm0.091,-0.131c0.03,-0.014 0.045,-0.041 0.045,-0.081c0,-0.044 -0.014,-0.073 -0.043,-0.088c-0.016,-0.008 -0.041,-0.013 -0.073,-0.013l-0.175,0l0,0.193l0.17,0c0.034,0 0.059,-0.004 0.076,-0.012Z" style="fill-rule:nonzero;"/></g><g transform="matrix(26.685393,0,0,26.685393,469.908916,282)"><path d="M0.577,-0.314l-0.35,0l0,0.185l0.398,0l0,0.129l-0.545,-0l0,-0.72l0.528,0l0,0.127l-0.381,0l0,0.153l0.35,0l0,0.125Z" style="fill-rule:nonzero;"/></g><g transform="matrix(26.685393,0,0,26.685393,490.376404,282)"><path d="M0.577,-0.314l-0.35,0l0,0.185l0.398,0l0,0.129l-0.545,-0l0,-0.72l0.528,0l0,0.127l-0.381,0l0,0.153l0.35,0l0,0.125Z" style="fill-rule:nonzero;"/></g><g transform="matrix(26.685393,0,0,26.685393,510.843893,282)"><path d="M0.386,-0l-0.31,-0l0,-0.72l0.31,0c0.045,0.001 0.082,0.006 0.111,0.016c0.05,0.017 0.091,0.047 0.123,0.091c0.025,0.036 0.042,0.075 0.051,0.116c0.009,0.042 0.014,0.081 0.014,0.119c0,0.096 -0.019,0.177 -0.058,0.243c-0.052,0.09 -0.132,0.134 -0.241,0.134Zm0.112,-0.536c-0.023,-0.039 -0.069,-0.059 -0.137,-0.059l-0.139,0l0,0.47l0.139,0c0.071,0 0.12,-0.035 0.148,-0.105c0.015,-0.038 0.023,-0.084 0.023,-0.137c0,-0.073 -0.011,-0.13 -0.034,-0.169Z" style="fill-rule:nonzero;"/></g><g transform="matrix(26.685393,0,0,26.685393,532.783768,282)"><path d="M0.214,-0l-0.14,-0l0,-0.72l0.219,0l0.131,0.566l0.13,-0.566l0.216,0l0,0.72l-0.14,-0l0,-0.487c0,-0.014 0,-0.034 0,-0.059c0,-0.025 0,-0.045 0,-0.058l-0.136,0.604l-0.146,-0l-0.135,-0.604c0,0.014 0,0.033 0,0.058c0,0.025 0,0.045 0,0.059l0,0.487Z" style="fill-rule:nonzero;"/></g><g transform="matrix(26.685393,0,0,26.685393,557.681449,282)"><path d="M0.498,-0.148l-0.265,0l-0.05,0.148l-0.157,-0l0.257,-0.72l0.17,0l0.255,0.72l-0.163,-0l-0.046,-0.148Zm-0.042,-0.124l-0.09,-0.283l-0.093,0.283l0.183,0Z" style="fill-rule:nonzero;"/></g><g transform="matrix(26.685393,0,0,26.685393,579.621324,282)"><path d="M0.658,-0l-0.15,-0l-0.294,-0.511l0,0.511l-0.14,-0l0,-0.72l0.158,0l0.287,0.502l0,-0.502l0.14,0l0,0.72Z" style="fill-rule:nonzero;"/></g><g transform="matrix(26.685393,0,0,26.685393,611.167941,282)"><path d="M0.071,-0.358c0,-0.031 0.01,-0.057 0.031,-0.077c0.02,-0.02 0.046,-0.03 0.077,-0.03c0.031,0 0.057,0.01 0.077,0.03c0.02,0.02 0.031,0.046 0.031,0.077c0,0.031 -0.01,0.057 -0.031,0.078c-0.02,0.021 -0.046,0.031 -0.077,0.031c-0.031,0 -0.057,-0.01 -0.077,-0.031c-0.02,-0.021 -0.031,-0.046 -0.031,-0.078Z" style="fill-rule:nonzero;"/></g><g transform="matrix(26.685393,0,0,26.685393,632.785716,282)"><path d="M0.405,-0l-0.326,-0l0,-0.72l0.35,0c0.088,0.001 0.151,0.027 0.188,0.077c0.022,0.031 0.033,0.067 0.033,0.11c0,0.044 -0.011,0.079 -0.033,0.106c-0.012,0.015 -0.031,0.029 -0.055,0.041c0.037,0.013 0.065,0.035 0.083,0.063c0.019,0.029 0.028,0.064 0.028,0.105c0,0.043 -0.011,0.081 -0.032,0.115c-0.014,0.022 -0.031,0.041 -0.051,0.057c-0.023,0.018 -0.05,0.03 -0.082,0.036c-0.031,0.007 -0.066,0.01 -0.102,0.01Zm-0.003,-0.317l-0.179,0l0,0.192l0.177,0c0.032,0 0.056,-0.004 0.074,-0.013c0.032,-0.016 0.048,-0.046 0.048,-0.09c0,-0.037 -0.015,-0.063 -0.046,-0.077c-0.017,-0.008 -0.042,-0.012 -0.073,-0.012Zm0.075,-0.137c0.02,-0.012 0.029,-0.033 0.029,-0.063c0,-0.034 -0.013,-0.056 -0.039,-0.066c-0.022,-0.007 -0.051,-0.011 -0.086,-0.011l-0.158,0l0,0.159l0.177,0c0.032,0 0.057,-0.006 0.077,-0.018Z" style="fill-rule:nonzero;"/></g><g transform="matrix(26.685393,0,0,26.685393,654.725591,282)"><path d="M0.577,-0.314l-0.35,0l0,0.185l0.398,0l0,0.129l-0.545,-0l0,-0.72l0.528,0l0,0.127l-0.381,0l0,0.153l0.35,0l0,0.125Z" style="fill-rule:nonzero;"/></g><g transform="matrix(26.685393,0,0,26.685393,675.19308,282)"><path d="M0.658,-0l-0.15,-0l-0.294,-0.511l0,0.511l-0.14,-0l0,-0.72l0.158,0l0.287,0.502l0,-0.502l0.14,0l0,0.72Z" style="fill-rule:nonzero;"/></g><g transform="matrix(26.685393,0,0,26.685393,697.132955,282)"><rect x="0.064" y="-0.72" width="0.149" height="0.72" style="fill-rule:nonzero;"/></g><g transform="matrix(26.685393,0,0,26.685393,707.215551,282)"><path d="M0.382,-0.259l-0.153,0l0,0.259l-0.149,-0l0,-0.72l0.313,0c0.072,0 0.13,0.019 0.173,0.056c0.043,0.037 0.064,0.095 0.064,0.172c0,0.085 -0.021,0.145 -0.064,0.18c-0.043,0.035 -0.104,0.053 -0.184,0.053Zm0.07,-0.15c0.02,-0.017 0.029,-0.045 0.029,-0.082c0,-0.037 -0.01,-0.064 -0.03,-0.08c-0.02,-0.016 -0.047,-0.024 -0.083,-0.024l-0.14,0l0,0.212l0.14,0c0.035,0 0.063,-0.009 0.083,-0.026Z" style="fill-rule:nonzero;"/></g><g transform="matrix(26.685393,0,0,26.685393,725.715513,282)"><path d="M0.498,-0.148l-0.265,0l-0.05,0.148l-0.157,-0l0.257,-0.72l0.17,0l0.255,0.72l-0.163,-0l-0.046,-0.148Zm-0.042,-0.124l-0.09,-0.283l-0.093,0.283l0.183,0Z" style="fill-rule:nonzero;"/></g><g transform="matrix(26.685393,0,0,26.685393,747.655389,282)"><path d="M0.076,-0.72l0.15,0l0,0.59l0.356,0l0,0.129l-0.507,-0l0,-0.72Z" style="fill-rule:nonzero;"/></g><g transform="matrix(26.685393,0,0,26.685393,776.231171,282)"><path d="M0.071,-0.358c0,-0.031 0.01,-0.057 0.031,-0.077c0.02,-0.02 0.046,-0.03 0.077,-0.03c0.031,0 0.057,0.01 0.077,0.03c0.02,0.02 0.031,0.046 0.031,0.077c0,0.031 -0.01,0.057 -0.031,0.078c-0.02,0.021 -0.046,0.031 -0.077,0.031c-0.031,0 -0.057,-0.01 -0.077,-0.031c-0.02,-0.021 -0.031,-0.046 -0.031,-0.078Z" style="fill-rule:nonzero;"/></g><g transform="matrix(26.685393,0,0,26.685393,797.848946,282)"><path d="M0.776,-0.72l0.153,0l-0.203,0.72l-0.144,-0l-0.087,-0.421l-0.025,-0.139l-0.025,0.139l-0.087,0.421l-0.14,-0l-0.204,-0.72l0.16,0l0.095,0.412l0.021,0.115l0.021,-0.112l0.081,-0.415l0.159,0l0.085,0.412l0.022,0.115l0.022,-0.11l0.096,-0.417Z" style="fill-rule:nonzero;"/></g><g transform="matrix(26.685393,0,0,26.685393,825.704431,282)"><path d="M0.502,-0.277l0,-0.442l0.153,0l0,0.442c0,0.076 -0.012,0.136 -0.036,0.179c-0.044,0.078 -0.129,0.117 -0.253,0.117c-0.125,0 -0.209,-0.039 -0.254,-0.117c-0.024,-0.043 -0.036,-0.102 -0.036,-0.179l0,-0.442l0.153,0l0,0.442c0,0.049 0.006,0.086 0.018,0.108c0.018,0.04 0.058,0.061 0.119,0.061c0.061,0 0.1,-0.02 0.119,-0.061c0.012,-0.023 0.018,-0.059 0.018,-0.108Z" style="fill-rule:nonzero;"/></g><g transform="matrix(26.685393,0,0,26.685393,857.251048,282)"><path d="M0.076,-0.72l0.15,0l0,0.59l0.356,0l0,0.129l-0.507,-0l0,-0.72Z" style="fill-rule:nonzero;"/></g><g transform="matrix(26.685393,0,0,26.685393,876.220089,282)"><path d="M0.076,-0.72l0.15,0l0,0.59l0.356,0l0,0.129l-0.507,-0l0,-0.72Z" style="fill-rule:nonzero;"/></g><g transform="matrix(26.685393,0,0,26.685393,895.189129,282)"><path d="M0.382,-0.259l-0.153,0l0,0.259l-0.149,-0l0,-0.72l0.313,0c0.072,0 0.13,0.019 0.173,0.056c0.043,0.037 0.064,0.095 0.064,0.172c0,0.085 -0.021,0.145 -0.064,0.18c-0.043,0.035 -0.104,0.053 -0.184,0.053Zm0.07,-0.15c0.02,-0.017 0.029,-0.045 0.029,-0.082c0,-0.037 -0.01,-0.064 -0.03,-0.08c-0.02,-0.016 -0.047,-0.024 -0.083,-0.024l-0.14,0l0,0.212l0.14,0c0.035,0 0.063,-0.009 0.083,-0.026Z" style="fill-rule:nonzero;"/></g></g></g><defs><linearGradient id="_Linear1" x1="0" y1="0" x2="1" y2="0" gradientUnits="userSpaceOnUse" gradientTransform="matrix(298.244659,0,0,4.144321,0,108.825032)"><stop offset="0" style="stop-color:#9f7330;stop-opacity:1"/><stop offset="0.49" style="stop-color:#ffc064;stop-opacity:1"/><stop offset="1" style="stop-color:#c89140;stop-opacity:1"/></linearGradient></defs></svg>